<svg width="24" height="24" viewBox="0 0 24 24" fill="none" xmlns="http://www.w3.org/2000/svg">
<rect width="24" height="24" fill="#3589EB"/>
<path d="M15.9995 16.5H19.4995C20.6041 16.5 21.5483 15.5512 21.0277 14.577C20.1717 12.9753 18.2424 12 15.9995 12C14.902 12 13.8826 12.2225 13.0277 12.6364M2.97135 17.077C3.82733 15.4753 5.75664 14.5 7.99952 14.5C10.2424 14.5 12.1717 15.4753 13.0277 17.077C13.5483 18.0512 12.6041 19 11.4995 19H4.49952C3.39495 19 2.45074 18.0512 2.97135 17.077ZM10.4995 9C10.4995 10.3807 9.38023 11.5 7.99952 11.5C6.61881 11.5 5.49952 10.3807 5.49952 9C5.49952 7.61929 6.61881 6.5 7.99952 6.5C9.38023 6.5 10.4995 7.61929 10.4995 9ZM18.4995 6.5C18.4995 7.88071 17.3802 9 15.9995 9C14.6188 9 13.4995 7.88071 13.4995 6.5C13.4995 5.11929 14.6188 4 15.9995 4C17.3802 4 18.4995 5.11929 18.4995 6.5Z" stroke="white" stroke-opacity="0.8" stroke-width="1.5" stroke-linecap="round"/>
</svg>
