<svg width="24" height="24" viewBox="0 0 24 24" fill="none" xmlns="http://www.w3.org/2000/svg">
<rect width="24" height="24" fill="#3589EB"/>
<path d="M15.5 15.5C13.567 17.433 10.433 17.433 8.5 15.5M15.5 15.5C13.567 17.433 10.433 17.433 8.5 15.5M15.5 15.5C13.567 17.433 10.433 17.433 8.5 15.5M21.5 12C21.5 17.2467 17.2467 21.5 12 21.5C6.75329 21.5 2.5 17.2467 2.5 12C2.5 6.75329 6.75329 2.5 12 2.5C17.2467 2.5 21.5 6.75329 21.5 12Z" stroke="white" stroke-opacity="0.8" stroke-width="1.5" stroke-linecap="round"/>
<circle cx="15" cy="10" r="1" fill="white"/>
<circle cx="15" cy="10" r="0.5" stroke="white" stroke-opacity="0.8"/>
<path d="M10 10C10 10.5523 9.55228 11 9 11C8.44772 11 8 10.5523 8 10C8 9.44772 8.44772 9 9 9C9.55228 9 10 9.44772 10 10Z" fill="white"/>
<path d="M9.5 10C9.5 10.2761 9.27614 10.5 9 10.5C8.72386 10.5 8.5 10.2761 8.5 10C8.5 9.72386 8.72386 9.5 9 9.5C9.27614 9.5 9.5 9.72386 9.5 10Z" stroke="white" stroke-opacity="0.8"/>
</svg>
