<svg width="24" height="24" viewBox="0 0 24 24" fill="none" xmlns="http://www.w3.org/2000/svg">
<rect width="24" height="24" fill="#3589EB"/>
<path d="M12 21.5C17.2467 21.5 21.5 17.2467 21.5 12C21.5 6.75329 17.2467 2.5 12 2.5C6.75329 2.5 2.5 6.75329 2.5 12C2.5 17.2467 6.75329 21.5 12 21.5Z" fill="white"/>
<path d="M15.5 15.5C13.567 17.433 10.433 17.433 8.5 15.5M15.5 15.5C13.567 17.433 10.433 17.433 8.5 15.5M15.5 15.5C13.567 17.433 10.433 17.433 8.5 15.5M21.5 12C21.5 17.2467 17.2467 21.5 12 21.5C6.75329 21.5 2.5 17.2467 2.5 12C2.5 6.75329 6.75329 2.5 12 2.5C17.2467 2.5 21.5 6.75329 21.5 12Z" stroke="white" stroke-width="1.5" stroke-linecap="round"/>
<path d="M15.5 15.5C13.567 17.433 10.433 17.433 8.5 15.5" stroke="#3589EB" stroke-width="1.5" stroke-linecap="round"/>
<circle cx="15" cy="10" r="1" fill="#3589EB"/>
<path d="M10 10C10 10.5523 9.55228 11 9 11C8.44772 11 8 10.5523 8 10C8 9.44772 8.44772 9 9 9C9.55228 9 10 9.44772 10 10Z" fill="#3589EB"/>
</svg>
