<svg width="24" height="24" viewBox="0 0 24 24" fill="none" xmlns="http://www.w3.org/2000/svg">
<path d="M13.0584 4.2945C13.266 4.16088 13.3698 4.09407 13.454 4.05054C14.518 3.50044 15.8236 4.00253 16.2448 5.12378C16.2781 5.21249 16.3104 5.33164 16.375 5.56993C16.4048 5.67995 16.4197 5.73497 16.4364 5.78558C16.6382 6.39874 17.1235 6.8768 17.7396 7.06933C17.7905 7.08522 17.8457 7.0993 17.9562 7.12746L18.1062 7.16568C18.6252 7.29799 18.8847 7.36414 19.0742 7.45813C19.9357 7.88534 20.3712 8.86513 20.1111 9.79086C20.0539 9.99453 19.9291 10.2315 19.6796 10.7054L19.6075 10.8424C19.5544 10.9432 19.5278 10.9937 19.5055 11.0421C19.2356 11.6284 19.2653 12.309 19.5853 12.8697C19.6117 12.9159 19.6425 12.9639 19.7042 13.0597C19.8378 13.2673 19.9046 13.3711 19.9482 13.4553C20.4983 14.5193 19.9962 15.8249 18.8749 16.2461C18.7862 16.2794 18.6671 16.3117 18.4288 16.3763C18.3188 16.4061 18.2637 16.421 18.2131 16.4377C17.6 16.6395 17.1219 17.1248 16.9294 17.7409C16.9135 17.7918 16.8994 17.847 16.8713 17.9575L16.833 18.1074C16.7007 18.6265 16.6346 18.886 16.5406 19.0755C16.1134 19.937 15.1336 20.3725 14.2079 20.1124C14.0042 20.0552 13.7672 19.9304 13.2933 19.6808L13.1564 19.6087C13.0555 19.5556 13.0051 19.5291 12.9567 19.5068C12.3703 19.2369 11.6897 19.2666 11.1291 19.5865C11.0828 19.613 11.0349 19.6438 10.939 19.7055C10.7314 19.8391 10.6276 19.9059 10.5434 19.9495C9.47945 20.4996 8.17384 19.9975 7.75261 18.8762C7.71929 18.7875 7.687 18.6684 7.62241 18.4301C7.59259 18.32 7.57769 18.265 7.56103 18.2144C7.35924 17.6013 6.87391 17.1232 6.25778 16.9307C6.20693 16.9148 6.1517 16.9007 6.04124 16.8725L5.89128 16.8343C5.37226 16.702 5.11275 16.6359 4.92322 16.5419C4.06175 16.1147 3.62624 15.1349 3.88632 14.2091C3.94354 14.0055 4.06832 13.7685 4.31787 13.2946L4.38997 13.1576C4.44308 13.0568 4.46963 13.0063 4.49191 12.9579C4.76182 12.3716 4.73212 11.691 4.41216 11.1303C4.38575 11.0841 4.35491 11.0361 4.29321 10.9403C4.15959 10.7327 4.09278 10.6289 4.04926 10.5447C3.49916 9.48073 4.00125 8.17512 5.1225 7.7539C5.21121 7.72057 5.33036 7.68828 5.56865 7.62369C5.67867 7.59388 5.73368 7.57897 5.7843 7.56231C6.39745 7.36052 6.87552 6.87519 7.06805 6.25907C7.08394 6.20821 7.09802 6.15298 7.12618 6.04252L7.1644 5.89256C7.29671 5.37354 7.36286 5.11403 7.45685 4.9245C7.88406 4.06304 8.86384 3.62752 9.78958 3.8876C9.99325 3.94482 10.2302 4.0696 10.7041 4.31915L10.8411 4.39125C10.9419 4.44436 10.9924 4.47091 11.0408 4.49319C11.6271 4.7631 12.3077 4.7334 12.8684 4.41345C12.9146 4.38703 12.9626 4.35619 13.0584 4.2945Z" fill="white" stroke="white" stroke-width="1.5" stroke-linecap="round"/>
<path d="M14.253 10.1108L11.8802 13.3121C11.5075 13.7764 10.8143 13.8142 10.3933 13.3932L9 11.9999" stroke="#3589EB" stroke-width="1.5" stroke-linecap="round"/>
</svg>
