<svg width="24" height="24" viewBox="0 0 24 24" fill="none" xmlns="http://www.w3.org/2000/svg">
<rect width="24" height="24" fill="#3589EB"/>
<path d="M15.5 16.5C13.567 14.567 10.433 14.567 8.5 16.5M21.5 12C21.5 17.2467 17.2467 21.5 12 21.5C6.75329 21.5 2.5 17.2467 2.5 12C2.5 6.75329 6.75329 2.5 12 2.5C17.2467 2.5 21.5 6.75329 21.5 12Z" stroke="white" stroke-opacity="0.8" stroke-width="1.5" stroke-linecap="round"/>
<path d="M9.5 10C9.5 10.2761 9.27614 10.5 9 10.5C8.72386 10.5 8.5 10.2761 8.5 10C8.5 9.72386 8.72386 9.5 9 9.5C9.27614 9.5 9.5 9.72386 9.5 10Z" stroke="white" stroke-opacity="0.8"/>
<path d="M15.5 10C15.5 10.2761 15.2761 10.5 15 10.5C14.7239 10.5 14.5 10.2761 14.5 10C14.5 9.72386 14.7239 9.5 15 9.5C15.2761 9.5 15.5 9.72386 15.5 10Z" stroke="white" stroke-opacity="0.8"/>
</svg>
