<svg width="24" height="24" viewBox="0 0 24 24" fill="none" xmlns="http://www.w3.org/2000/svg">
<rect width="24" height="24" fill="#3589EB"/>
<path d="M12.4961 9.84291C12.6552 8.79497 12.757 6.43884 10.9471 4.62892C9.13711 2.819 6.78098 2.9208 5.73306 3.07991C5.39148 3.13178 5.13178 3.39148 5.07991 3.73306C4.9208 4.78098 4.81899 7.13711 6.62891 8.94703C8.43884 10.7569 10.795 10.6551 11.8429 10.496C12.1845 10.4442 12.4442 10.1845 12.4961 9.84291ZM12.4961 9.84291L12.4961 14.2925V21.2422M18.5252 15.0442C20.7989 13.7315 21.3168 11.366 21.4342 10.2954C21.4719 9.95201 21.2887 9.63461 20.9724 9.49551C19.9866 9.06191 17.679 8.3277 15.4053 9.64041C13.1315 10.9532 12.6137 13.3187 12.4962 14.3892C12.4585 14.7327 12.6418 15.0501 12.958 15.1892C13.9439 15.6227 16.2514 16.357 18.5252 15.0442Z" stroke="white" stroke-opacity="0.8" stroke-width="1.5" stroke-linecap="round"/>
</svg>
