<svg width="24" height="24" viewBox="0 0 24 24" fill="none" xmlns="http://www.w3.org/2000/svg">
<rect width="24" height="24" transform="matrix(-1 0 0 1 24 0)" fill="#3589EB"/>
<path d="M13.0002 11L20.293 18.2929C20.6836 18.6834 20.6836 19.3166 20.293 19.7071L19.7073 20.2929C19.3167 20.6834 18.6836 20.6834 18.293 20.2929L11.0002 13M13.0002 11L9.7073 7.70711C9.3167 7.31658 8.6836 7.31658 8.293 7.70711L7.7073 8.29289C7.3167 8.68342 7.3167 9.31658 7.7073 9.70711L11.0002 13M13.0002 11L11.0002 13M9.0002 4.5V2.5M4.5002 9H2.5002M5.6971 12.3033L4.2829 13.7175M13.7176 4.28247L12.3034 5.69669M4.2827 4.28256L5.6969 5.69678" stroke="white" stroke-opacity="0.8" stroke-width="1.5" stroke-linecap="round"/>
</svg>
