<svg width="103" height="24" viewBox="0 0 103 24" fill="none" xmlns="http://www.w3.org/2000/svg">
<path d="M5.792 23.064C4.36267 23.064 3.21067 22.3707 2.336 20.984C1.48267 19.576 0.981333 17.6773 0.832 15.288C0.810667 14.9467 0.8 14.4453 0.8 13.784C0.8 11.2027 1.22667 8.92 2.08 6.936C2.93333 4.93067 4.13867 3.384 5.696 2.296C7.27467 1.18667 9.10933 0.631998 11.2 0.631998C13.2907 0.631998 15.1147 1.18667 16.672 2.296C18.2507 3.384 19.456 4.92 20.288 6.904C21.1413 8.888 21.568 11.1813 21.568 13.784C21.568 14.4453 21.5573 14.9467 21.536 15.288C21.3867 17.72 20.8853 19.6187 20.032 20.984C19.1787 22.3493 18.0267 23.032 16.576 23.032C15.4027 23.032 14.5813 22.712 14.112 22.072C13.664 21.432 13.44 20.6533 13.44 19.736C13.44 19.3093 13.472 18.936 13.536 18.616C12.4267 18.6587 11.4453 18.68 10.592 18.68C10.0587 18.68 9.472 18.6587 8.832 18.616C8.896 18.936 8.928 19.3093 8.928 19.736C8.928 20.6747 8.69333 21.464 8.224 22.104C7.776 22.744 6.96533 23.064 5.792 23.064ZM8.608 12.92C9.76 12.8773 10.6027 12.856 11.136 12.856C11.712 12.856 12.5547 12.8773 13.664 12.92C13.7067 12.6853 13.728 12.3333 13.728 11.864C13.728 10.8613 13.5147 10.0507 13.088 9.432C12.6613 8.792 12 8.472 11.104 8.472C10.2293 8.472 9.57867 8.78133 9.152 9.4C8.72533 10.0187 8.512 10.8187 8.512 11.8C8.512 12.1627 8.544 12.536 8.608 12.92ZM31.3093 17.208C32.3973 17.336 33.2399 17.6133 33.8373 18.04C34.4559 18.4453 34.7653 19.096 34.7653 19.992C34.7653 20.888 34.4453 21.5493 33.8053 21.976C33.1866 22.4027 32.4399 22.6693 31.5653 22.776C30.6906 22.8613 29.5599 22.904 28.1733 22.904C26.8079 22.904 25.6879 22.8613 24.8133 22.776C23.9386 22.6693 23.1919 22.4027 22.5733 21.976C21.9546 21.5493 21.6453 20.888 21.6453 19.992C21.6453 19.1173 21.9333 18.4773 22.5093 18.072C23.1066 17.6453 23.9173 17.3573 24.9413 17.208C24.8346 15.9707 24.7813 14.2 24.7813 11.896C24.7813 9.82667 24.8239 8.16267 24.9093 6.904C23.6719 6.776 22.7013 6.47733 21.9973 6.008C21.2933 5.53867 20.9413 4.80267 20.9413 3.8C20.9413 2.81867 21.2826 2.09333 21.9653 1.624C22.6479 1.15466 23.4693 0.866665 24.4293 0.759998C25.3893 0.653332 26.6266 0.599998 28.1413 0.599998C29.6559 0.599998 30.8933 0.653332 31.8533 0.759998C32.8133 0.866665 33.6346 1.15466 34.3173 1.624C35.0213 2.09333 35.3733 2.81867 35.3733 3.8C35.3733 4.80267 35.0106 5.53867 34.2853 6.008C33.5813 6.47733 32.5999 6.776 31.3413 6.904C31.4479 8.07733 31.5013 9.74133 31.5013 11.896C31.5013 13.9653 31.4373 15.736 31.3093 17.208ZM56.7743 11.992C58.0329 11.992 59.0676 12.056 59.8783 12.184C60.7103 12.2907 61.3823 12.5467 61.8943 12.952C62.4276 13.336 62.6943 13.9227 62.6943 14.712C62.6943 15.8427 62.2569 16.5893 61.3823 16.952C60.5289 17.3147 59.2809 17.496 57.6383 17.496L54.9823 17.464L52.9663 17.496C53.0516 18.3067 53.0943 18.9467 53.0943 19.416C53.0943 21.784 52.1556 22.968 50.2783 22.968C48.7209 22.968 47.4943 22.104 46.5983 20.376C45.7236 18.648 45.2863 15.9493 45.2863 12.28C45.2863 10.0187 45.7556 8.00267 46.6943 6.232C47.6543 4.46133 48.9556 3.08533 50.5983 2.104C52.2409 1.10133 54.0436 0.599998 56.0063 0.599998C58.4383 0.599998 60.2836 1.016 61.5423 1.848C62.8223 2.68 63.4623 3.84267 63.4623 5.336C63.4623 6.38133 63.2063 7.18133 62.6943 7.736C62.2036 8.26933 61.5103 8.632 60.6143 8.824C59.7396 8.99467 58.5769 9.08 57.1263 9.08C55.9529 9.08 54.9396 9.31467 54.0863 9.784C53.2543 10.2533 52.7956 10.904 52.7103 11.736L52.6783 12.024C52.9343 12.0027 53.3183 11.992 53.8303 11.992H54.9823H56.7743ZM72.4595 23C70.8808 23 69.4835 22.6907 68.2675 22.072C67.0515 21.4533 66.1022 20.5893 65.4195 19.48C64.7582 18.3493 64.4275 17.08 64.4275 15.672C64.4275 14.2853 64.7582 13.0053 65.4195 11.832C66.1022 10.6587 67.0408 9.72 68.2355 9.016C69.4302 8.312 70.7848 7.96 72.2995 7.96C73.6648 7.96 74.8702 8.23733 75.9155 8.792C76.9608 9.34667 77.7608 10.0827 78.3155 11C78.8702 11.896 79.1475 12.8347 79.1475 13.816C79.1475 15.416 78.5395 16.5893 77.3235 17.336C76.1288 18.0613 74.6995 18.424 73.0355 18.424C71.9262 18.424 70.9875 18.2853 70.2195 18.008C70.8595 19.0533 71.9155 19.576 73.3875 19.576C73.9848 19.576 74.6248 19.5013 75.3075 19.352C75.5635 19.288 75.8088 19.256 76.0435 19.256C76.5128 19.256 76.8862 19.3733 77.1635 19.608C77.4622 19.8427 77.6115 20.1627 77.6115 20.568C77.6115 21.2293 77.2062 21.8053 76.3955 22.296C75.5848 22.7653 74.2728 23 72.4595 23ZM70.3155 14.104C70.5075 14.4027 70.7635 14.6267 71.0835 14.776C71.4248 14.904 71.7982 14.968 72.2035 14.968C72.6728 14.968 73.0782 14.8613 73.4195 14.648C73.7822 14.4347 73.9635 14.1573 73.9635 13.816C73.9635 13.432 73.8035 13.1013 73.4835 12.824C73.1848 12.5467 72.7475 12.408 72.1715 12.408C71.5955 12.408 71.1368 12.5893 70.7955 12.952C70.4755 13.2933 70.3155 13.6773 70.3155 14.104ZM87.507 23C85.9283 23 84.531 22.6907 83.315 22.072C82.099 21.4533 81.1497 20.5893 80.467 19.48C79.8057 18.3493 79.475 17.08 79.475 15.672C79.475 14.2853 79.8057 13.0053 80.467 11.832C81.1497 10.6587 82.0883 9.72 83.283 9.016C84.4777 8.312 85.8323 7.96 87.347 7.96C88.7123 7.96 89.9177 8.23733 90.963 8.792C92.0083 9.34667 92.8083 10.0827 93.363 11C93.9177 11.896 94.195 12.8347 94.195 13.816C94.195 15.416 93.587 16.5893 92.371 17.336C91.1763 18.0613 89.747 18.424 88.083 18.424C86.9737 18.424 86.035 18.2853 85.267 18.008C85.907 19.0533 86.963 19.576 88.435 19.576C89.0323 19.576 89.6723 19.5013 90.355 19.352C90.611 19.288 90.8563 19.256 91.091 19.256C91.5603 19.256 91.9337 19.3733 92.211 19.608C92.5097 19.8427 92.659 20.1627 92.659 20.568C92.659 21.2293 92.2537 21.8053 91.443 22.296C90.6323 22.7653 89.3203 23 87.507 23ZM85.363 14.104C85.555 14.4027 85.811 14.6267 86.131 14.776C86.4723 14.904 86.8457 14.968 87.251 14.968C87.7203 14.968 88.1257 14.8613 88.467 14.648C88.8297 14.4347 89.011 14.1573 89.011 13.816C89.011 13.432 88.851 13.1013 88.531 12.824C88.2323 12.5467 87.795 12.408 87.219 12.408C86.643 12.408 86.1843 12.5893 85.843 12.952C85.523 13.2933 85.363 13.6773 85.363 14.104ZM98.8915 22.936C97.8248 22.936 97.0248 22.5413 96.4915 21.752C95.9582 20.9627 95.5955 19.8 95.4035 18.264C95.2328 16.7067 95.1475 14.5413 95.1475 11.768C95.1475 9.10133 95.2115 7.02133 95.3395 5.528C95.4888 4.03467 95.8302 2.84 96.3635 1.944C96.9182 1.048 97.7715 0.599998 98.9235 0.599998C100.076 0.599998 100.918 1.048 101.452 1.944C102.006 2.84 102.348 4.03467 102.476 5.528C102.625 7.02133 102.7 9.10133 102.7 11.768C102.7 14.392 102.582 16.5147 102.348 18.136C102.134 19.736 101.75 20.9413 101.196 21.752C100.641 22.5413 99.8728 22.936 98.8915 22.936Z" fill="#3589EB"/>
</svg>
