<svg width="260" height="177" viewBox="0 0 260 177" fill="none" xmlns="http://www.w3.org/2000/svg">
<g clip-path="url(#clip0_71_2184)">
<path opacity="0.35" d="M356.453 152.049C320.864 204.814 215.612 76.4403 190.072 101.063C177.479 113.204 218.52 156.122 192.06 169.496C156.972 187.231 13.7664 96.8702 56.4085 66.1856C70.9245 55.7401 110.841 76.0419 118.349 100.838C124.607 121.501 101.036 111.67 101.036 84.9504C101.036 66.5015 118.959 53.799 133.734 69.9397C159.804 98.4157 155.921 173.913 109.872 173.913C69.9332 173.913 10.7213 114.551 -14.5136 128.218" stroke="white" stroke-width="2" stroke-linecap="round" stroke-linejoin="round"/>
<path opacity="0.25" d="M202.11 45.9656C195.674 43.7358 180.913 41.0801 174.477 38.8503C171.764 37.9074 168.978 36.928 166.76 35.0861C164.554 33.2416 163.001 30.3244 163.587 27.5046C164.208 24.5365 167.053 22.4452 169.998 21.7725C172.955 21.0972 176.036 21.5787 179.028 22.0656C174.98 21.1929 172.354 16.6338 172.36 12.4948C172.354 8.35832 175.512 4.42884 179.557 3.5418C184.585 2.43874 189.549 5.69224 193.043 9.48078C201.915 19.0845 205.448 33.3251 202.11 45.9656Z" fill="white"/>
</g>
<defs>
<clipPath id="clip0_71_2184">
<rect width="260" height="177" fill="white"/>
</clipPath>
</defs>
</svg>
