<svg width="24" height="24" viewBox="0 0 24 24" fill="none" xmlns="http://www.w3.org/2000/svg">
<path d="M14.253 10.1108L11.8802 13.3121C11.5075 13.7764 10.8143 13.8142 10.3933 13.3932L9 11.9999" stroke="white" stroke-width="1.5" stroke-linecap="round"/>
<path d="M19.9482 13.4553C19.9046 13.3711 19.8378 13.2673 19.7042 13.0597C19.6425 12.9639 19.6117 12.9159 19.5853 12.8697C19.2653 12.309 19.2356 11.6284 19.5055 11.0421C19.5278 10.9937 19.5544 10.9432 19.6075 10.8424L19.6796 10.7054C19.9291 10.2315 20.0539 9.99453 20.1111 9.79086C20.3712 8.86513 19.9357 7.88534 19.0742 7.45813C18.8847 7.36414 18.6252 7.29799 18.1062 7.16568L17.9562 7.12746C17.8457 7.0993 17.7905 7.08522 17.7396 7.06933C17.1235 6.8768 16.6382 6.39874 16.4364 5.78558C16.4197 5.73497 16.4048 5.67995 16.375 5.56993C16.3104 5.33164 16.2781 5.21249 16.2448 5.12378C15.8236 4.00253 14.518 3.50044 13.454 4.05054C13.3698 4.09407 13.266 4.16088 13.0584 4.2945C12.9626 4.35619 12.9146 4.38703 12.8684 4.41345C12.3077 4.7334 11.6271 4.7631 11.0408 4.49319C10.9924 4.47091 10.9419 4.44436 10.8411 4.39125L10.7041 4.31915C10.2302 4.0696 9.99325 3.94482 9.78958 3.8876C8.86384 3.62752 7.88406 4.06304 7.45685 4.9245C7.36286 5.11403 7.29671 5.37354 7.1644 5.89256L7.12618 6.04252C7.09802 6.15298 7.08394 6.20821 7.06805 6.25907C6.87552 6.87519 6.39745 7.36052 5.7843 7.56231C5.73368 7.57897 5.67867 7.59388 5.56865 7.62369C5.33036 7.68828 5.21121 7.72057 5.1225 7.7539C4.00125 8.17512 3.49916 9.48073 4.04926 10.5447C4.09278 10.6289 4.15959 10.7327 4.29321 10.9403C4.35491 11.0361 4.38575 11.0841 4.41216 11.1303C4.73212 11.691 4.76182 12.3716 4.49191 12.9579C4.46963 13.0063 4.44308 13.0568 4.38997 13.1576L4.31787 13.2946C4.06832 13.7685 3.94354 14.0055 3.88632 14.2091C3.62624 15.1349 4.06175 16.1147 4.92322 16.5419C5.11275 16.6359 5.37226 16.702 5.89128 16.8343L6.04124 16.8725C6.1517 16.9007 6.20693 16.9148 6.25778 16.9307C6.87391 17.1232 7.35924 17.6013 7.56103 18.2144C7.57769 18.265 7.59259 18.32 7.62241 18.4301C7.687 18.6684 7.71929 18.7875 7.75261 18.8762C8.17384 19.9975 9.47945 20.4996 10.5434 19.9495C10.6276 19.9059 10.7314 19.8391 10.939 19.7055C11.0349 19.6438 11.0828 19.613 11.1291 19.5865C11.6897 19.2666 12.3703 19.2369 12.9567 19.5068C13.0051 19.5291 13.0555 19.5556 13.1564 19.6087L13.2933 19.6808C13.7672 19.9304 14.0042 20.0552 14.2079 20.1124" stroke="white" stroke-width="1.5" stroke-linecap="round"/>
<path d="M17.5291 20.5C17.1191 20.5 16.7791 20.16 16.7791 19.75V18.21H15.3091C14.8991 18.21 14.5591 17.87 14.5591 17.46C14.5591 17.05 14.8991 16.71 15.3091 16.71H16.7791V15.17C16.7791 14.76 17.1191 14.42 17.5291 14.42C17.9391 14.42 18.2791 14.76 18.2791 15.17V16.71H19.7491C20.1591 16.71 20.4991 17.05 20.4991 17.46C20.4991 17.87 20.1591 18.21 19.7491 18.21H18.2791V19.75C18.2791 20.16 17.9391 20.5 17.5291 20.5Z" fill="white"/>
</svg>
