<svg width="24" height="24" viewBox="0 0 24 24" fill="none" xmlns="http://www.w3.org/2000/svg">
<path d="M13.1 20.5H7.34001C6.59001 20.5 5.88001 20.16 5.44001 19.59C5.04001 19.07 4.90001 18.4 5.07001 17.75C5.94001 14.45 8.88001 12.14 12.21 12.14C13.24 12.14 14.24 12.35 15.18 12.78C15.56 12.95 15.73 13.39 15.56 13.77C15.39 14.15 14.94 14.31 14.57 14.15C13.83 13.82 13.03 13.65 12.22 13.65C9.57001 13.65 7.23001 15.5 6.53001 18.14C6.48001 18.34 6.51001 18.52 6.64001 18.68C6.80001 18.88 7.07001 19.01 7.35001 19.01H13.11C13.52 19.01 13.86 19.35 13.86 19.76C13.86 20.17 13.52 20.51 13.11 20.51L13.1 20.5ZM17.53 20.04C17.12 20.04 16.78 19.7 16.78 19.29V17.75H15.31C14.9 17.75 14.56 17.41 14.56 17C14.56 16.59 14.9 16.25 15.31 16.25H16.78V14.71C16.78 14.3 17.12 13.96 17.53 13.96C17.94 13.96 18.28 14.3 18.28 14.71V16.25H19.75C20.16 16.25 20.5 16.59 20.5 17C20.5 17.41 20.16 17.75 19.75 17.75H18.28V19.29C18.28 19.7 17.94 20.04 17.53 20.04ZM12.21 10.9C10.09 10.9 8.36001 9.13 8.36001 6.95C8.36001 4.77 10.09 3 12.21 3C14.33 3 16.06 4.77 16.06 6.95C16.06 9.13 14.33 10.9 12.21 10.9ZM12.21 4.5C10.91 4.5 9.86001 5.6 9.86001 6.95C9.86001 8.3 10.92 9.4 12.21 9.4C13.5 9.4 14.56 8.3 14.56 6.95C14.56 5.6 13.5 4.5 12.21 4.5Z" fill="white"/>
</svg>
