<svg width="25" height="24" viewBox="0 0 25 24" fill="none" xmlns="http://www.w3.org/2000/svg">
<path d="M6.08985 6.01087C5.80638 6.31289 5.82142 6.78753 6.12344 7.071C6.42547 7.35446 6.9001 7.33942 7.18357 7.0374L6.08985 6.01087ZM7.18357 16.046C6.9001 15.7439 6.42546 15.7289 6.12344 16.0124C5.82142 16.2958 5.80638 16.7705 6.08985 17.0725L7.18357 16.046ZM8.53475 8.52946C8.94896 8.52946 9.28475 8.19367 9.28475 7.77946C9.28475 7.36525 8.94896 7.02946 8.53475 7.02946V8.52946ZM5.71191 7.77946H4.96191C4.96191 8.19367 5.2977 8.52946 5.71191 8.52946V7.77946ZM6.46191 4.95663C6.46191 4.54242 6.12613 4.20663 5.71191 4.20663C5.2977 4.20663 4.96191 4.54242 4.96191 4.95663H6.46191ZM7.18357 7.0374C8.38555 5.75674 10.0914 4.95834 11.9848 4.95834V3.45834C9.66004 3.45834 7.56352 4.44073 6.08985 6.01087L7.18357 7.0374ZM11.9848 4.95834C15.6207 4.95834 18.5681 7.9058 18.5681 11.5417H20.0681C20.0681 7.07737 16.4491 3.45834 11.9848 3.45834V4.95834ZM18.5681 11.5417C18.5681 15.1775 15.6207 18.125 11.9848 18.125V19.625C16.4491 19.625 20.0681 16.006 20.0681 11.5417H18.5681ZM11.9848 18.125C10.0914 18.125 8.38555 17.3266 7.18357 16.046L6.08985 17.0725C7.56351 18.6426 9.66004 19.625 11.9848 19.625V18.125ZM8.53475 7.02946H5.71191V8.52946H8.53475V7.02946ZM6.46191 7.77946V4.95663H4.96191V7.77946H6.46191Z" fill="#3589EB"/>
</svg>
