<svg width="25" height="24" viewBox="0 0 25 24" fill="none" xmlns="http://www.w3.org/2000/svg">
<path d="M13.083 13.1064C12.3167 12.7623 11.4705 12.5714 10.5808 12.5714C7.69684 12.5714 5.26868 14.5771 4.54511 17.3053C4.30284 18.2188 5.07231 19 5.99358 19H11.4149M13.5 7C13.5 8.65686 12.193 10 10.5808 10C8.9686 10 7.66168 8.65686 7.66168 7C7.66168 5.34314 8.9686 4 10.5808 4C12.193 4 13.5 5.34314 13.5 7Z" stroke="#3589EB" stroke-width="1.5" stroke-linecap="round"/>
<path d="M20.1667 17.2857V13.8571C20.1667 13.3838 19.7687 13 19.2778 13H16.8333M20.1667 17.2857L18.8333 16M20.1667 17.2857L21.5 16M14.8333 14.7143V18.1429C14.8333 18.6163 15.2313 19 15.7222 19H18.1667M14.8333 14.7143L16.1667 16M14.8333 14.7143L13.5 16" stroke="#3589EB" stroke-width="1.5" stroke-linecap="round" stroke-linejoin="round"/>
</svg>
