<svg width="25" height="24" viewBox="0 0 25 24" fill="none" xmlns="http://www.w3.org/2000/svg">
<path d="M12.5 4.99994H7.5C6.39543 4.99994 5.5 5.89537 5.5 6.99994V17.9999C5.5 19.1045 6.39543 19.9999 7.5 19.9999H17.5C18.6046 19.9999 19.5 19.1045 19.5 17.9999V11.9999M20.397 3.64455L20.8553 4.10279C21.2768 4.52436 21.2768 5.20787 20.8553 5.62944L14.7907 11.694C14.6722 11.8125 14.5277 11.9018 14.3688 11.9547L12.1452 12.6959C11.9343 12.7662 11.7335 12.5655 11.8039 12.3546L12.545 10.131C12.598 9.97205 12.6873 9.82758 12.8058 9.70908L18.8704 3.64455C19.292 3.22298 19.9755 3.22298 20.397 3.64455Z" stroke="#3589EB" stroke-width="1.5" stroke-linecap="round"/>
</svg>
