<svg width="24" height="24" viewBox="0 0 24 24" fill="none" xmlns="http://www.w3.org/2000/svg">
<path d="M15.75 20.5H7.75C6.23 20.5 5 19.27 5 17.75V5.75C5 4.23 6.23 3 7.75 3H12.92C13.65 3 14.34 3.29 14.86 3.81L17.69 6.64C18.21 7.16 18.5 7.85 18.5 8.58V17.75C18.5 19.27 17.27 20.5 15.75 20.5ZM7.75 4.5C7.06 4.5 6.5 5.06 6.5 5.75V17.75C6.5 18.44 7.06 19 7.75 19H15.75C16.44 19 17 18.44 17 17.75V9.5H14.38C13.06 9.5 12 8.43 12 7.12V4.5H7.75ZM13.5 4.64V7.11C13.5 7.6 13.9 7.99 14.38 7.99H16.85C16.79 7.88 16.72 7.77 16.63 7.68L13.8 4.85C13.71 4.76 13.61 4.68 13.49 4.63L13.5 4.64ZM14.25 18.03H9.25C8.56 18.03 8 17.47 8 16.78V11.78C8 11.09 8.56 10.53 9.25 10.53H14.25C14.94 10.53 15.5 11.09 15.5 11.78V16.78C15.5 17.47 14.94 18.03 14.25 18.03ZM12.5 16.53H14V15.03H12.5V16.53ZM9.5 16.53H11V15.03H9.5V16.53ZM12.5 13.53H14V12.03H12.5V13.53ZM9.5 13.53H11V12.03H9.5V13.53Z" fill="white"/>
</svg>
