<svg width="24" height="24" viewBox="0 0 24 24" fill="none" xmlns="http://www.w3.org/2000/svg">
<g clip-path="url(#clip0_51_1902)">
<path d="M15.75 20.5H7.75C6.23 20.5 5 19.27 5 17.75V5.75C5 4.23 6.23 3 7.75 3H12.92C13.65 3 14.34 3.29 14.86 3.81L17.69 6.64C18.21 7.16 18.5 7.85 18.5 8.58V17.75C18.5 19.27 17.27 20.5 15.75 20.5ZM7.75 4.5C7.06 4.5 6.5 5.06 6.5 5.75V17.75C6.5 18.44 7.06 19 7.75 19H15.75C16.44 19 17 18.44 17 17.75V9.5H14.38C13.06 9.5 12 8.43 12 7.12V4.5H7.75ZM13.5 4.64V7.11C13.5 7.6 13.9 7.99 14.38 7.99H16.85C16.79 7.88 16.72 7.77 16.63 7.68L13.8 4.85C13.71 4.76 13.61 4.68 13.49 4.63L13.5 4.64Z" fill="white"/>
<path d="M11.7802 14.53L10.6902 13.28C9.9102 12.39 9.5802 11.63 9.7102 10.99C9.7902 10.61 10.0302 10.31 10.3802 10.13C10.7602 9.95 11.1602 9.97 11.4802 10.2C11.6702 10.34 12.2702 10.77 11.9902 12.88L11.7802 14.52V14.53Z" fill="white"/>
<path d="M12.38 14.58C12.23 14.58 12.07 14.53 11.94 14.43C11.49 14.1 11.06 13.7 10.69 13.28C10.42 12.97 10.45 12.49 10.76 12.22C11.07 11.95 11.55 11.98 11.82 12.29C12.12 12.63 12.48 12.96 12.84 13.22C13.17 13.47 13.25 13.93 13 14.27C12.85 14.47 12.63 14.58 12.4 14.58H12.38Z" fill="white"/>
<path d="M10.9598 14.94C10.8898 14.94 10.8198 14.94 10.7498 14.91C10.3498 14.79 10.1198 14.38 10.2398 13.98C10.3598 13.58 10.4498 13.12 10.5098 12.69C10.5598 12.28 10.9298 11.99 11.3498 12.04C11.7598 12.09 12.0498 12.47 11.9998 12.88C11.9298 13.39 11.8198 13.92 11.6798 14.4C11.5798 14.73 11.2798 14.94 10.9598 14.94Z" fill="white"/>
<path d="M13.89 15.25C13.33 15.25 12.68 14.98 11.94 14.43L10.52 13.39L12.25 13.09C14.54 12.69 14.94 13.32 15.08 13.52C15.3 13.86 15.28 14.28 15.03 14.66C14.83 14.96 14.53 15.16 14.16 15.23C14.07 15.25 13.98 15.25 13.89 15.25Z" fill="white"/>
<path d="M10.9501 14.94C10.6401 14.94 10.3501 14.74 10.2401 14.43C10.1101 14.04 10.3101 13.61 10.7101 13.48C11.1901 13.32 11.7201 13.18 12.2501 13.09C12.6601 13.03 13.0501 13.29 13.1201 13.7C13.1901 14.11 12.9201 14.5 12.5101 14.57C12.0601 14.65 11.5901 14.77 11.2001 14.9C11.1201 14.93 11.0401 14.94 10.9601 14.94H10.9501Z" fill="white"/>
<path d="M9.95018 16.52C9.63018 16.52 9.31018 16.37 9.07018 16.09C8.78018 15.76 8.67018 15.37 8.78018 14.98C8.94018 14.37 9.57018 13.88 10.7202 13.49L12.0902 13.02L11.6802 14.41C11.3102 15.67 10.8302 16.36 10.1902 16.5C10.1102 16.52 10.0302 16.53 9.95018 16.53V16.52Z" fill="white"/>
</g>
<defs>
<clipPath id="clip0_51_1902">
<rect width="13.5" height="17.5" fill="white" transform="translate(5 3)"/>
</clipPath>
</defs>
</svg>
