<svg width="24" height="24" viewBox="0 0 24 24" fill="none" xmlns="http://www.w3.org/2000/svg">
<path d="M5.58985 6.01087C5.30638 6.31289 5.32142 6.78753 5.62344 7.071C5.92547 7.35446 6.4001 7.33942 6.68357 7.0374L5.58985 6.01087ZM6.68357 16.046C6.4001 15.7439 5.92546 15.7289 5.62344 16.0124C5.32142 16.2958 5.30638 16.7705 5.58985 17.0725L6.68357 16.046ZM8.03475 8.52946C8.44896 8.52946 8.78475 8.19367 8.78475 7.77946C8.78475 7.36525 8.44896 7.02946 8.03475 7.02946V8.52946ZM5.21191 7.77946H4.46191C4.46191 8.19367 4.7977 8.52946 5.21191 8.52946V7.77946ZM5.96191 4.95663C5.96191 4.54242 5.62613 4.20663 5.21191 4.20663C4.7977 4.20663 4.46191 4.54242 4.46191 4.95663H5.96191ZM6.68357 7.0374C7.88555 5.75674 9.59135 4.95834 11.4848 4.95834V3.45834C9.16004 3.45834 7.06352 4.44073 5.58985 6.01087L6.68357 7.0374ZM11.4848 4.95834C15.1207 4.95834 18.0681 7.9058 18.0681 11.5417H19.5681C19.5681 7.07737 15.9491 3.45834 11.4848 3.45834V4.95834ZM18.0681 11.5417C18.0681 15.1775 15.1207 18.125 11.4848 18.125V19.625C15.9491 19.625 19.5681 16.006 19.5681 11.5417H18.0681ZM11.4848 18.125C9.59137 18.125 7.88555 17.3266 6.68357 16.046L5.58985 17.0725C7.06351 18.6426 9.16004 19.625 11.4848 19.625V18.125ZM8.03475 7.02946H5.21191V8.52946H8.03475V7.02946ZM5.96191 7.77946V4.95663H4.46191V7.77946H5.96191Z" fill="#3589EB"/>
</svg>
