<svg width="36" height="36" viewBox="0 0 36 36" fill="none" xmlns="http://www.w3.org/2000/svg">
<circle cx="18" cy="18" r="18" fill="white"/>
<path d="M17.9998 18C15.1713 18 12.7897 19.872 12.0801 22.4183C11.8425 23.2709 12.0801 24 13.5268 24C14.9736 24 21.0783 24 22.499 24C23.9197 24 24.1573 23.2709 23.9197 22.4183C23.21 19.872 20.8285 18 17.9998 18Z" fill="#3589EB"/>
<path d="M21 13C21 14.6569 19.6568 16 18 16C16.3431 16 15 14.6569 15 13C15 11.3431 16.3431 10 18 10C19.6568 10 21 11.3431 21 13Z" fill="#3589EB"/>
</svg>
