<svg width="24" height="24" viewBox="0 0 24 24" fill="none" xmlns="http://www.w3.org/2000/svg">
<path d="M19.7831 11.2146C20.0996 11.6971 20.0996 12.3029 19.7831 12.7854C18.7861 14.3051 16.1917 17.5 11.9997 17.5C7.80783 17.5 5.21339 14.3051 4.2164 12.7854C3.89987 12.3029 3.89987 11.6971 4.2164 11.2146C5.21339 9.6949 7.80783 6.5 11.9997 6.5C16.1917 6.5 18.7861 9.6949 19.7831 11.2146Z" stroke="#858585" stroke-width="1.5" stroke-linecap="round"/>
<path d="M14.75 12C14.75 13.5188 13.5188 14.75 12 14.75C10.4812 14.75 9.25 13.5188 9.25 12C9.25 10.4812 10.4812 9.25 12 9.25C13.5188 9.25 14.75 10.4812 14.75 12Z" stroke="#858585" stroke-width="1.5" stroke-linecap="round"/>
</svg>
