<svg width="24" height="24" viewBox="0 0 24 24" fill="none" xmlns="http://www.w3.org/2000/svg">
<path d="M12.583 13.1064C11.8167 12.7623 10.9705 12.5714 10.0808 12.5714C7.19684 12.5714 4.76868 14.5771 4.04511 17.3053C3.80284 18.2188 4.57231 19 5.49358 19H10.9149M13 7C13 8.65686 11.693 10 10.0808 10C8.4686 10 7.16168 8.65686 7.16168 7C7.16168 5.34314 8.4686 4 10.0808 4C11.693 4 13 5.34314 13 7Z" stroke="#3589EB" stroke-width="1.5" stroke-linecap="round"/>
<path d="M19.6667 17.2857V13.8571C19.6667 13.3838 19.2687 13 18.7778 13H16.3333M19.6667 17.2857L18.3333 16M19.6667 17.2857L21 16M14.3333 14.7143V18.1429C14.3333 18.6163 14.7313 19 15.2222 19H17.6667M14.3333 14.7143L15.6667 16M14.3333 14.7143L13 16" stroke="#3589EB" stroke-width="1.5" stroke-linecap="round" stroke-linejoin="round"/>
</svg>
